<?xml version="1.0" standalone="no"?><!DOCTYPE svg PUBLIC "-//W3C//DTD SVG 1.1//EN" "http://www.w3.org/Graphics/SVG/1.1/DTD/svg11.dtd"><svg t="1718013698030" class="icon" viewBox="0 0 1024 1024" version="1.1" xmlns="http://www.w3.org/2000/svg" p-id="4726" xmlns:xlink="http://www.w3.org/1999/xlink" width="200" height="200"><path d="M592.6 447.2c-38.7 0-60.8 28.2-60.8 64.5s22.1 64.9 60.8 64.9 60.8-28.5 60.8-64.9c0-36.3-22.1-64.5-60.8-64.5z" p-id="4727" fill="#bfbfbf"></path><path d="M512 64C264.6 64 64 264.6 64 512s200.6 448 448 448 448-200.6 448-448S759.4 64 512 64z m-72.2 566.6c0 2.7-1 3.7-4.8 0.7L290 512.1v115.1h-58v-234c0-2 1-3.7 4.8-0.7l145 119.5V396.3h58.1v234.3z m152.8-0.4c-66.6 0-123.9-48.9-123.9-118.5s57.4-118.2 123.9-118.2 123.9 48.6 123.9 118.2-57.3 118.5-123.9 118.5z m165.4 0.4c-18 0-34-13.6-34-33.3 0-19.7 16-33.3 34-33.3 17.7 0 34 13.6 34 33.3 0 19.7-16.3 33.3-34 33.3z" p-id="4728" fill="#bfbfbf"></path></svg>