<?xml version="1.0" standalone="no"?><!DOCTYPE svg PUBLIC "-//W3C//DTD SVG 1.1//EN" "http://www.w3.org/Graphics/SVG/1.1/DTD/svg11.dtd"><svg height="243" node-id="1" sillyvg="true" template-height="243" template-width="249" version="1.1" viewBox="0 0 249 243" width="249" xmlns="http://www.w3.org/2000/svg" xmlns:xlink="http://www.w3.org/1999/xlink"><defs node-id="64"></defs><g node-id="208"><path d="M 242.70 121.35 C 242.70 188.37 188.37 242.70 121.35 242.70 C 54.33 242.70 0.00 188.37 0.00 121.35 C -0.00 54.33 54.33 0.00 121.35 0.00 C 188.37 -0.00 242.70 54.33 242.70 121.35 Z" fill="#6e6e96" fill-opacity="0.12" fill-rule="nonzero" group-id="1" node-id="68" stroke="none" target-height="242.698" target-width="242.698" target-x="0" target-y="0"></path></g><g node-id="209"><path d="M 207.83 193.45 C 207.83 202.84 200.14 210.52 190.75 210.52 L 46.48 210.52 C 37.09 210.52 29.40 202.84 29.40 193.45 L 29.40 67.84 C 29.40 58.45 37.09 50.77 46.48 50.77 L 190.75 50.77 C 200.15 50.77 207.83 58.45 207.83 67.84 L 207.83 193.45 Z" fill="#bbbbc7" fill-rule="nonzero" group-id="2" node-id="73" stroke="none" target-height="159.75" target-width="178.427" target-x="29.401" target-y="50.77"></path><path d="M 207.83 193.45 C 207.83 202.84 200.14 210.52 190.75 210.52 L 46.48 210.52 C 37.09 210.52 29.40 202.84 29.40 193.45 L 29.40 67.84 C 29.40 58.45 37.09 50.77 46.48 50.77 L 190.75 50.77 C 200.15 50.77 207.83 58.45 207.83 67.84 L 207.83 193.45 Z" fill="#bbbbc7" fill-rule="nonzero" group-id="2" node-id="75" stroke="none" target-height="159.75" target-width="178.427" target-x="29.401" target-y="50.77"></path></g><g node-id="210"><path d="M 190.75 50.77 L 46.48 50.77 C 37.09 50.77 29.40 58.45 29.40 67.84 L 29.40 74.34 C 29.40 64.95 37.09 57.27 46.48 57.27 L 190.75 57.27 C 200.15 57.27 207.83 64.95 207.83 74.34 L 207.83 67.84 C 207.83 58.45 200.15 50.77 190.75 50.77 Z" fill="#ffffff" fill-opacity="0.15" fill-rule="nonzero" group-id="3" node-id="80" stroke="none" target-height="23.574001" target-width="178.427" target-x="29.401" target-y="50.769"></path></g><g node-id="211"><path d="M 190.75 212.02 L 46.48 212.02 C 36.23 212.02 27.90 203.69 27.90 193.45 L 27.90 67.84 C 27.90 57.60 36.23 49.27 46.48 49.27 L 190.75 49.27 C 201.00 49.27 209.33 57.60 209.33 67.84 L 209.33 193.45 C 209.33 203.69 201.00 212.02 190.75 212.02 Z M 46.48 52.27 C 37.89 52.27 30.90 59.26 30.90 67.84 L 30.90 193.45 C 30.90 202.03 37.89 209.02 46.48 209.02 L 190.75 209.02 C 199.34 209.02 206.33 202.03 206.33 193.45 L 206.33 67.84 C 206.33 59.26 199.34 52.27 190.75 52.27 L 46.48 52.27 Z" fill="#6e6e96" fill-rule="nonzero" group-id="4" node-id="85" stroke="none" target-height="162.75099" target-width="181.427" target-x="27.901" target-y="49.27"></path><path d="M 190.75 212.02 L 46.48 212.02 C 36.23 212.02 27.90 203.69 27.90 193.45 L 27.90 67.84 C 27.90 57.60 36.23 49.27 46.48 49.27 L 190.75 49.27 C 201.00 49.27 209.33 57.60 209.33 67.84 L 209.33 193.45 C 209.33 203.69 201.00 212.02 190.75 212.02 Z M 46.48 52.27 C 37.89 52.27 30.90 59.26 30.90 67.84 L 30.90 193.45 C 30.90 202.03 37.89 209.02 46.48 209.02 L 190.75 209.02 C 199.34 209.02 206.33 202.03 206.33 193.45 L 206.33 67.84 C 206.33 59.26 199.34 52.27 190.75 52.27 L 46.48 52.27 Z" fill="#6e6e96" fill-rule="nonzero" group-id="4" node-id="87" stroke="none" target-height="162.75099" target-width="181.427" target-x="27.901" target-y="49.27"></path></g><g node-id="212"><path d="M 45.70 159.85 L 191.89 159.85 L 191.89 175.35 L 45.70 175.35 Z" fill="#ffffff" fill-opacity="0.15" fill-rule="nonzero" group-id="5" node-id="92" stroke="none" target-height="15.5" target-width="146.194" target-x="45.698" target-y="159.849"></path></g><path d="M 219.57 192.49 L 17.66 192.49 C 17.66 192.49 23.36 210.52 34.86 210.52 C 46.36 210.52 202.37 210.52 202.37 210.52 C 202.37 210.52 213.67 208.71 219.57 192.49 Z" fill="#bbbbc7" fill-rule="nonzero" node-id="95" stroke="none" target-height="18.035004" target-width="201.907" target-x="17.661" target-y="192.485"></path><path d="M 45.70 68.09 L 191.53 68.09 L 191.53 170.00 L 45.70 170.00 Z" fill="#a6d2ff" fill-rule="nonzero" node-id="97" stroke="none" target-height="101.909" target-width="145.834" target-x="45.698" target-y="68.091"></path><path d="M 191.53 171.50 L 45.70 171.50 C 44.87 171.50 44.20 170.83 44.20 170.00 L 44.20 68.09 C 44.20 67.26 44.87 66.59 45.70 66.59 L 191.53 66.59 C 192.36 66.59 193.03 67.26 193.03 68.09 L 193.03 170.00 C 193.03 170.83 192.36 171.50 191.53 171.50 Z M 47.20 168.50 L 190.03 168.50 L 190.03 69.59 L 47.20 69.59 L 47.20 168.50 Z" fill="#6e6e96" fill-rule="nonzero" node-id="99" stroke="none" target-height="104.909" target-width="148.834" target-x="44.198" target-y="66.591"></path><path d="M 45.70 68.09 L 191.53 68.09 L 191.53 74.85 L 45.70 74.85 Z" fill="#6e6e96" fill-opacity="0.15" fill-rule="nonzero" group-id="6" node-id="103" stroke="none" target-height="6.7579956" target-width="145.834" target-x="45.698" target-y="68.091"></path><path d="M 62.20 169.56 L 62.20 39.25 C 62.20 35.23 65.48 31.94 69.50 31.94 L 168.54 31.94 C 172.56 31.94 175.85 35.23 175.85 39.25 L 175.85 169.56" fill="#ffffff" fill-rule="nonzero" group-id="7,20" node-id="110" stroke="none" target-height="137.62401" target-width="113.659004" target-x="62.195" target-y="31.941"></path><path d="M 177.35 169.56 L 174.35 169.56 L 174.35 39.25 C 174.35 36.05 171.75 33.44 168.54 33.44 L 69.50 33.44 C 66.30 33.44 63.70 36.05 63.70 39.25 L 63.70 169.56 L 60.70 169.56 L 60.70 39.25 C 60.70 34.39 64.65 30.44 69.50 30.44 L 168.54 30.44 C 173.40 30.44 177.35 34.39 177.35 39.25 L 177.35 169.56 Z" fill="#6e6e96" fill-rule="nonzero" group-id="7,20" node-id="112" stroke="none" target-height="139.12401" target-width="116.659004" target-x="60.695" target-y="30.441"></path><path d="M 62.20 169.56 L 62.20 39.25 C 62.20 35.23 65.48 31.94 69.50 31.94 L 168.54 31.94 C 172.56 31.94 175.85 35.23 175.85 39.25 L 175.85 169.56 L 62.20 169.56 Z" fill="#ffffff" fill-rule="nonzero" group-id="7,21" node-id="117" stroke="none" target-height="137.62401" target-width="113.659004" target-x="62.195" target-y="31.941"></path><path d="M 177.35 171.06 L 60.70 171.06 L 60.70 39.25 C 60.70 34.39 64.65 30.44 69.50 30.44 L 168.54 30.44 C 173.40 30.44 177.35 34.39 177.35 39.25 L 177.35 171.06 Z M 63.70 168.06 L 174.35 168.06 L 174.35 39.25 C 174.35 36.05 171.75 33.44 168.54 33.44 L 69.50 33.44 C 66.30 33.44 63.70 36.05 63.70 39.25 L 63.70 168.06 Z" fill="#6e6e96" fill-rule="nonzero" group-id="7,21" node-id="119" stroke="none" target-height="140.62401" target-width="116.659004" target-x="60.695" target-y="30.441"></path><path d="M 62.20 71.82 L 175.85 71.82 L 175.85 102.71 L 62.20 102.71 Z" fill="#b6e0c4" fill-rule="nonzero" group-id="8" node-id="125" stroke="none" target-height="30.891998" target-width="113.657005" target-x="62.195" target-y="71.819"></path><path d="M 177.35 104.21 L 60.70 104.21 L 60.70 70.32 L 177.35 70.32 L 177.35 104.21 Z M 63.70 101.21 L 174.35 101.21 L 174.35 73.32 L 63.70 73.32 L 63.70 101.21 Z" fill="#6e6e96" fill-rule="nonzero" group-id="8" node-id="127" stroke="none" target-height="33.892" target-width="116.657005" target-x="60.695" target-y="70.319"></path><path d="M 98.86 46.11 L 157.34 46.11 L 157.34 49.11 L 98.86 49.11 Z" fill="#6e6e96" fill-rule="nonzero" group-id="9" node-id="132" stroke="none" target-height="3" target-width="58.473007" target-x="98.864" target-y="46.113"></path><path d="M 80.83 46.11 L 90.58 46.11 L 90.58 49.11 L 80.83 49.11 Z" fill="#6e6e96" fill-rule="nonzero" group-id="9" node-id="134" stroke="none" target-height="3" target-width="9.746002" target-x="80.833" target-y="46.113"></path><path d="M 98.86 85.26 L 157.34 85.26 L 157.34 88.26 L 98.86 88.26 Z" fill="#6e6e96" fill-rule="nonzero" group-id="10" node-id="139" stroke="none" target-height="3" target-width="58.473007" target-x="98.864" target-y="85.261"></path><path d="M 80.83 85.26 L 90.58 85.26 L 90.58 88.26 L 80.83 88.26 Z" fill="#6e6e96" fill-rule="nonzero" group-id="10" node-id="141" stroke="none" target-height="3" target-width="9.746002" target-x="80.833" target-y="85.261"></path><path d="M 99.74 119.90 L 158.22 119.90 L 158.22 122.90 L 99.74 122.90 Z" fill="#6e6e96" fill-rule="nonzero" group-id="11" node-id="146" stroke="none" target-height="3" target-width="58.473" target-x="99.742" target-y="119.9"></path><path d="M 81.71 119.90 L 91.46 119.90 L 91.46 122.90 L 81.71 122.90 Z" fill="#6e6e96" fill-rule="nonzero" group-id="11" node-id="148" stroke="none" target-height="3" target-width="9.746002" target-x="81.712" target-y="119.9"></path><path d="M 99.74 129.35 L 158.22 129.35 L 158.22 132.35 L 99.74 132.35 Z" fill="#6e6e96" fill-rule="nonzero" group-id="12" node-id="153" stroke="none" target-height="3" target-width="58.473" target-x="99.742" target-y="129.349"></path><path d="M 81.71 129.35 L 91.46 129.35 L 91.46 132.35 L 81.71 132.35 Z" fill="#6e6e96" fill-rule="nonzero" group-id="12" node-id="155" stroke="none" target-height="3" target-width="9.746002" target-x="81.712" target-y="129.349"></path><path d="M 15.29 26.21 C 15.29 30.36 11.93 33.72 7.79 33.72 C 3.64 33.72 0.28 30.36 0.28 26.21 C 0.28 22.07 3.64 18.71 7.79 18.71 C 11.93 18.71 15.29 22.07 15.29 26.21 Z" fill="#77bd91" fill-rule="nonzero" node-id="158" stroke="none" target-height="15" target-width="15" target-x="0.285" target-y="18.715"></path><path d="M 20.57 197.51 L 216.89 197.51 L 219.05 192.83 L 18.16 191.81 Z" fill="#ffffff" fill-opacity="0.25" fill-rule="nonzero" group-id="13" node-id="162" stroke="none" target-height="5.696991" target-width="200.891" target-x="18.161" target-y="191.813"></path><path d="M 248.78 150.22 C 248.78 154.63 245.20 158.22 240.78 158.22 C 236.37 158.22 232.78 154.63 232.78 150.22 C 232.78 145.80 236.37 142.22 240.78 142.22 C 245.20 142.22 248.78 145.80 248.78 150.22 Z" fill="#ed8ede" fill-rule="nonzero" node-id="165" stroke="none" target-height="16" target-width="16" target-x="232.785" target-y="142.215"></path><path d="M 110.78 17.71 C 110.78 20.20 108.77 22.21 106.28 22.21 C 103.80 22.21 101.78 20.20 101.78 17.71 C 101.78 15.23 103.80 13.21 106.28 13.21 C 108.77 13.21 110.78 15.23 110.78 17.71 Z" fill="#ffbf00" fill-rule="nonzero" node-id="167" stroke="none" target-height="9" target-width="9" target-x="101.785" target-y="13.215"></path><path d="M 202.37 212.02 L 34.86 212.02 C 22.40 212.02 16.48 193.72 16.23 192.94 C 16.09 192.48 16.17 191.99 16.45 191.60 C 16.73 191.21 17.18 190.99 17.66 190.99 L 219.57 190.99 C 220.06 190.99 220.52 191.22 220.80 191.63 C 221.08 192.03 221.15 192.54 220.98 193.00 C 214.85 209.85 203.11 211.92 202.61 212.00 C 202.53 212.01 202.45 212.02 202.37 212.02 Z M 19.82 193.99 C 21.61 198.45 26.73 209.02 34.86 209.02 L 202.23 209.02 C 203.35 208.79 212.00 206.66 217.37 193.99 L 19.82 193.99 Z" fill="#6e6e96" fill-rule="nonzero" node-id="169" stroke="none" target-height="21.035004" target-width="205.05899" target-x="16.087" target-y="190.986"></path><path d="M 202.87 205.08 C 202.87 205.08 46.86 205.08 35.36 205.08 C 29.18 205.08 24.67 201.31 21.83 197.84 L 18.16 197.84 C 18.16 197.84 23.86 210.85 35.36 210.85 C 46.86 210.85 202.87 210.85 202.87 210.85 C 202.87 210.85 214.17 209.54 220.07 197.84 L 216.08 197.84 C 210.15 204.23 202.87 205.08 202.87 205.08 Z" fill="#6e6e96" fill-opacity="0.15" fill-rule="nonzero" group-id="14" node-id="173" stroke="none" target-height="13.011002" target-width="201.907" target-x="18.161" target-y="197.838"></path><path d="M 29.40 185.85 L 207.83 185.85 L 207.83 192.49 L 29.40 192.49 Z" fill="#6e6e96" fill-opacity="0.15" fill-rule="nonzero" group-id="15" node-id="178" stroke="none" target-height="6.6369934" target-width="178.427" target-x="29.401" target-y="185.849"></path><path d="M 99.74 139.35 L 125.89 139.35 L 125.89 142.35 L 99.74 142.35 Z" fill="#6e6e96" fill-rule="nonzero" group-id="16" node-id="183" stroke="none" target-height="3" target-width="26.150002" target-x="99.742" target-y="139.349"></path><path d="M 81.71 139.35 L 91.46 139.35 L 91.46 142.35 L 81.71 142.35 Z" fill="#6e6e96" fill-rule="nonzero" group-id="16" node-id="185" stroke="none" target-height="3" target-width="9.746002" target-x="81.712" target-y="139.349"></path><path d="M 99.74 148.80 L 141.89 148.80 L 141.89 151.80 L 99.74 151.80 Z" fill="#6e6e96" fill-rule="nonzero" group-id="17" node-id="190" stroke="none" target-height="3" target-width="42.15" target-x="99.742" target-y="148.797"></path><path d="M 81.71 148.80 L 91.46 148.80 L 91.46 151.80 L 81.71 151.80 Z" fill="#6e6e96" fill-rule="nonzero" group-id="17" node-id="192" stroke="none" target-height="3" target-width="9.746002" target-x="81.712" target-y="148.797"></path><path d="M 98.86 55.77 L 141.89 55.77 L 141.89 58.77 L 98.86 58.77 Z" fill="#6e6e96" fill-rule="nonzero" group-id="18" node-id="197" stroke="none" target-height="3" target-width="43.028" target-x="98.864" target-y="55.769"></path><path d="M 80.83 55.77 L 90.58 55.77 L 90.58 58.77 L 80.83 58.77 Z" fill="#6e6e96" fill-rule="nonzero" group-id="18" node-id="199" stroke="none" target-height="3" target-width="9.746002" target-x="80.833" target-y="55.769"></path><path d="M 99.89 192.35 L 140.89 192.35 L 140.89 199.60 L 99.89 199.60 Z" fill="#bbbbc7" fill-rule="nonzero" group-id="19" node-id="204" stroke="none" target-height="7.25" target-width="41.000008" target-x="99.893" target-y="192.349"></path><path d="M 142.39 201.10 L 98.39 201.10 L 98.39 190.85 L 142.39 190.85 L 142.39 201.10 Z M 101.39 198.10 L 139.39 198.10 L 139.39 193.85 L 101.39 193.85 L 101.39 198.10 Z" fill="#6e6e96" fill-rule="nonzero" group-id="19" node-id="206" stroke="none" target-height="10.25" target-width="44.000008" target-x="98.393" target-y="190.849"></path></svg>