<?xml version="1.0" standalone="no"?><!DOCTYPE svg PUBLIC "-//W3C//DTD SVG 1.1//EN" "http://www.w3.org/Graphics/SVG/1.1/DTD/svg11.dtd"><svg t="1718194222029" class="icon" viewBox="0 0 1024 1024" version="1.1" xmlns="http://www.w3.org/2000/svg" p-id="7124" xmlns:xlink="http://www.w3.org/1999/xlink" width="200" height="200"><path d="M512 0C230.4 0 0 230.4 0 512s230.4 512 512 512 512-230.4 512-512S793.6 0 512 0z m0 950.044444C270.222222 950.044444 71.111111 753.777778 71.111111 512c0-102.4 34.133333-193.422222 91.022222-267.377778l645.688889 591.644445c-76.8 71.111111-182.044444 113.777778-295.822222 113.777777z m347.022222-170.666666L213.333333 187.733333C292.977778 113.777778 395.377778 71.111111 512 71.111111c241.777778 0 440.888889 196.266667 440.888889 440.888889 0 99.555556-36.977778 193.422222-93.866667 267.377778z" p-id="7125" fill="#ffffff"></path></svg>