<?xml version="1.0" standalone="no"?><!DOCTYPE svg PUBLIC "-//W3C//DTD SVG 1.1//EN" "http://www.w3.org/Graphics/SVG/1.1/DTD/svg11.dtd"><svg t="1718124387206" class="icon" viewBox="0 0 1024 1024" version="1.1" xmlns="http://www.w3.org/2000/svg" p-id="1689" xmlns:xlink="http://www.w3.org/1999/xlink" width="200" height="200"><path d="M192 96c16.5632 0 30.208 12.5952 31.8464 28.7232L224 128v780.8a32 32 0 0 1-63.8464 3.2768L160 908.8V128c0-17.664 14.336-32 32-32z" fill="#BFBFBF" p-id="1690"></path><path d="M832 96c25.9072 0 40.6528 28.928 26.6752 49.7152l-1.92 2.56L647.1168 404.48l204.544 159.0528c23.168 18.048 11.6992 54.528-16.4608 57.1136l-3.2 0.1536h-640a32 32 0 0 1-3.2768-63.8464l3.2768-0.1536h546.7392l-156.7744-121.9328a32 32 0 0 1-7.2192-42.6752l2.0992-2.8672 187.6224-229.3248H192a32 32 0 0 1-31.8464-28.7232L160 128c0-16.5632 12.5952-30.208 28.7232-31.8464L192 96h640z" fill="#BFBFBF" p-id="1691"></path></svg>